<svg xmlns="http://www.w3.org/2000/svg" xmlns:xlink="http://www.w3.org/1999/xlink" xmlns:lucid="lucid" width="612" height="175.47"><g transform="translate(-94 -132.26666666666665)" lucid:page-tab-id="0_0"><path d="M320 158.27a6 6 0 0 1 6-6h148a6 6 0 0 1 6 6v123.46a6 6 0 0 1-6 6H326a6 6 0 0 1-6-6z" stroke="#fb8500" fill="#8ecae6"/><use xlink:href="#a" transform="matrix(1,0,0,1,332,164.26666666666665) translate(27.361111111111114 30.055555555555557)"/><use xlink:href="#b" transform="matrix(1,0,0,1,332,164.26666666666665) translate(1.400000000000034 59.38888888888889)"/><use xlink:href="#c" transform="matrix(1,0,0,1,332,164.26666666666665) translate(24.5432098765432 88.72222222222223)"/><path d="M100.5 220h202.62M100.5 220h-.5" stroke="#fb8500" fill="none"/><path d="M317.88 220l-14.26 4.63v-9.26z" stroke="#fb8500" fill="#fb8500"/><use xlink:href="#d" transform="matrix(1,0,0,1,120.53695900310635,192.4266133333333) translate(0 15.71559111111111)"/><path d="M481 220h182.62" stroke="#fb8500" fill="none"/><path d="M481 220.5h-.5v-1h.5z" stroke="#fb8500" stroke-width=".05" fill="#fb8500"/><path d="M678.38 220l-14.26 4.63v-9.26z" stroke="#fb8500" fill="#fb8500"/><g><use xlink:href="#e" transform="matrix(1,0,0,1,486.06556438271616,187.79135841770915) translate(0 15.71559111111111)"/></g><defs><path fill="#023047" d="M186 0v-106H76V0H24v-248h52v99h110v-99h50V0h-50" id="f"/><path fill="#023047" d="M133-34C117-15 103 5 69 4 32 3 11-16 11-54c-1-60 55-63 116-61 1-26-3-47-28-47-18 1-26 9-28 27l-52-2c7-38 36-58 82-57s74 22 75 68l1 82c-1 14 12 18 25 15v27c-30 8-71 5-69-32zm-48 3c29 0 43-24 42-57-32 0-66-3-65 30 0 17 8 27 23 27" id="g"/><path fill="#023047" d="M135-194c87-1 58 113 63 194h-50c-7-57 23-157-34-157-59 0-34 97-39 157H25l-1-190h47c2 12-1 28 3 38 12-26 28-41 61-42" id="h"/><path fill="#023047" d="M88-194c31-1 46 15 58 34l-1-101h50l1 261h-48c-2-10 0-23-3-31C134-8 116 4 84 4 32 4 16-41 15-95c0-56 19-97 73-99zm17 164c33 0 40-30 41-66 1-37-9-64-41-64s-38 30-39 65c0 43 13 65 39 65" id="i"/><path fill="#023047" d="M25 0v-261h50V0H25" id="j"/><path fill="#023047" d="M185-48c-13 30-37 53-82 52C43 2 14-33 14-96s30-98 90-98c62 0 83 45 84 108H66c0 31 8 55 39 56 18 0 30-7 34-22zm-45-69c5-46-57-63-70-21-2 6-4 13-4 21h74" id="k"/><g id="a"><use transform="matrix(0.06790123456790123,0,0,0.06790123456790123,0,0)" xlink:href="#f"/><use transform="matrix(0.06790123456790123,0,0,0.06790123456790123,17.586419753086417,0)" xlink:href="#g"/><use transform="matrix(0.06790123456790123,0,0,0.06790123456790123,31.166666666666664,0)" xlink:href="#h"/><use transform="matrix(0.06790123456790123,0,0,0.06790123456790123,46.03703703703703,0)" xlink:href="#i"/><use transform="matrix(0.06790123456790123,0,0,0.06790123456790123,60.907407407407405,0)" xlink:href="#j"/><use transform="matrix(0.06790123456790123,0,0,0.06790123456790123,67.69753086419753,0)" xlink:href="#k"/></g><path fill="#202124" d="M140-251c80 0 125 45 125 126S219 4 139 4C58 4 15-44 15-125s44-126 125-126zm-1 214c52 0 73-35 73-88 0-50-21-86-72-86-52 0-73 35-73 86s22 88 72 88" id="l"/><path fill="#202124" d="M190-63c-7 42-38 67-86 67-59 0-84-38-90-98-12-110 154-137 174-36l-49 2c-2-19-15-32-35-32-30 0-35 28-38 64-6 74 65 87 74 30" id="m"/><path fill="#202124" d="M85 4C-2 5 27-109 22-190h50c7 57-23 150 33 157 60-5 35-97 40-157h50l1 190h-47c-2-12 1-28-3-38-12 25-28 42-61 42" id="n"/><path fill="#202124" d="M135-150c-39-12-60 13-60 57V0H25l-1-190h47c2 13-1 29 3 40 6-28 27-53 61-41v41" id="o"/><path fill="#202124" d="M185-48c-13 30-37 53-82 52C43 2 14-33 14-96s30-98 90-98c62 0 83 45 84 108H66c0 31 8 55 39 56 18 0 30-7 34-22zm-45-69c5-46-57-63-70-21-2 6-4 13-4 21h74" id="p"/><path fill="#202124" d="M135-194c87-1 58 113 63 194h-50c-7-57 23-157-34-157-59 0-34 97-39 157H25l-1-190h47c2 12-1 28 3 38 12-26 28-41 61-42" id="q"/><g id="b"><use transform="matrix(0.06666666666666664,0,0,0.06666666666666664,0,0)" xlink:href="#l"/><use transform="matrix(0.06666666666666664,0,0,0.06666666666666664,18.666666666666657,0)" xlink:href="#m"/><use transform="matrix(0.06666666666666664,0,0,0.06666666666666664,31.999999999999986,0)" xlink:href="#m"/><use transform="matrix(0.06666666666666664,0,0,0.06666666666666664,45.333333333333314,0)" xlink:href="#n"/><use transform="matrix(0.06666666666666664,0,0,0.06666666666666664,59.93333333333331,0)" xlink:href="#o"/><use transform="matrix(0.06666666666666664,0,0,0.06666666666666664,69.26666666666664,0)" xlink:href="#o"/><use transform="matrix(0.06666666666666664,0,0,0.06666666666666664,78.59999999999997,0)" xlink:href="#p"/><use transform="matrix(0.06666666666666664,0,0,0.06666666666666664,91.9333333333333,0)" xlink:href="#q"/><use transform="matrix(0.06666666666666664,0,0,0.06666666666666664,106.53333333333329,0)" xlink:href="#m"/><use transform="matrix(0.06666666666666664,0,0,0.06666666666666664,119.86666666666662,0)" xlink:href="#p"/></g><path fill="#023047" d="M169-182c-1-43-94-46-97-3 18 66 151 10 154 114 3 95-165 93-204 36-6-8-10-19-12-30l50-8c3 46 112 56 116 5-17-69-150-10-154-114-4-87 153-88 188-35 5 8 8 18 10 28" id="r"/><path fill="#023047" d="M135-150c-39-12-60 13-60 57V0H25l-1-190h47c2 13-1 29 3 40 6-28 27-53 61-41v41" id="s"/><path fill="#023047" d="M128 0H69L1-190h53L99-40l48-150h52" id="t"/><path fill="#023047" d="M25-224v-37h50v37H25zM25 0v-190h50V0H25" id="u"/><path fill="#023047" d="M190-63c-7 42-38 67-86 67-59 0-84-38-90-98-12-110 154-137 174-36l-49 2c-2-19-15-32-35-32-30 0-35 28-38 64-6 74 65 87 74 30" id="v"/><g id="c"><use transform="matrix(0.06790123456790123,0,0,0.06790123456790123,0,0)" xlink:href="#r"/><use transform="matrix(0.06790123456790123,0,0,0.06790123456790123,16.296296296296294,0)" xlink:href="#k"/><use transform="matrix(0.06790123456790123,0,0,0.06790123456790123,29.87654320987654,0)" xlink:href="#s"/><use transform="matrix(0.06790123456790123,0,0,0.06790123456790123,39.382716049382715,0)" xlink:href="#t"/><use transform="matrix(0.06790123456790123,0,0,0.06790123456790123,52.96296296296296,0)" xlink:href="#u"/><use transform="matrix(0.06790123456790123,0,0,0.06790123456790123,59.75308641975309,0)" xlink:href="#v"/><use transform="matrix(0.06790123456790123,0,0,0.06790123456790123,73.33333333333334,0)" xlink:href="#k"/></g><path fill="#023047" d="M115-3C79 11 28 4 28-45v-112H4v-33h27l15-45h31v45h36v33H77v99c-1 23 16 31 38 25v30" id="w"/><path fill="#023047" d="M231 0h-52l-39-155L100 0H48L-1-190h46L77-45c9-52 24-97 36-145h53l37 145 32-145h46" id="x"/><path fill="#023047" d="M24 0v-54h51V0H24" id="y"/><path fill="#023047" d="M144 0l-44-69L55 0H2l70-98-66-92h53l41 62 40-62h54l-67 91 71 99h-54" id="z"/><g id="d"><use transform="matrix(0.05456802469135802,0,0,0.05456802469135802,0,0)" xlink:href="#w"/><use transform="matrix(0.05456802469135802,0,0,0.05456802469135802,6.493594938271604,0)" xlink:href="#x"/><use transform="matrix(0.05456802469135802,0,0,0.05456802469135802,21.77264185185185,0)" xlink:href="#u"/><use transform="matrix(0.05456802469135802,0,0,0.05456802469135802,27.229444320987653,0)" xlink:href="#w"/><use transform="matrix(0.05456802469135802,0,0,0.05456802469135802,33.72303925925926,0)" xlink:href="#w"/><use transform="matrix(0.05456802469135802,0,0,0.05456802469135802,40.216634197530865,0)" xlink:href="#k"/><use transform="matrix(0.05456802469135802,0,0,0.05456802469135802,51.13023913580247,0)" xlink:href="#s"/><use transform="matrix(0.05456802469135802,0,0,0.05456802469135802,57.678402098765424,0)" xlink:href="#y"/><use transform="matrix(0.05456802469135802,0,0,0.05456802469135802,63.135204567901226,0)" xlink:href="#w"/><use transform="matrix(0.05456802469135802,0,0,0.05456802469135802,69.62879950617284,0)" xlink:href="#x"/><use transform="matrix(0.05456802469135802,0,0,0.05456802469135802,84.90784641975308,0)" xlink:href="#k"/><use transform="matrix(0.05456802469135802,0,0,0.05456802469135802,95.82145135802469,0)" xlink:href="#k"/><use transform="matrix(0.05456802469135802,0,0,0.05456802469135802,106.73505629629629,0)" xlink:href="#w"/><use transform="matrix(0.05456802469135802,0,0,0.05456802469135802,113.22865123456789,0)" xlink:href="#y"/><use transform="matrix(0.05456802469135802,0,0,0.05456802469135802,118.68545370370369,0)" xlink:href="#w"/><use transform="matrix(0.05456802469135802,0,0,0.05456802469135802,125.1790486419753,0)" xlink:href="#k"/><use transform="matrix(0.05456802469135802,0,0,0.05456802469135802,136.09265358024692,0)" xlink:href="#z"/><use transform="matrix(0.05456802469135802,0,0,0.05456802469135802,147.0062585185185,0)" xlink:href="#w"/></g><path fill="#023047" d="M114-157C55-157 80-60 75 0H25v-261h50l-1 109c12-26 28-41 61-42 86-1 58 113 63 194h-50c-7-57 23-157-34-157" id="A"/><path fill="#023047" d="M85 4C-2 5 27-109 22-190h50c7 57-23 150 33 157 60-5 35-97 40-157h50l1 190h-47c-2-12 1-28-3-38-12 25-28 42-61 42" id="B"/><path fill="#023047" d="M137-138c1-29-70-34-71-4 15 46 118 7 119 86 1 83-164 76-172 9l43-7c4 19 20 25 44 25 33 8 57-30 24-41C81-84 22-81 20-136c-2-80 154-74 161-7" id="C"/><path fill="#023047" d="M195-6C206 82 75 100 31 46c-4-6-6-13-8-21l49-6c3 16 16 24 34 25 40 0 42-37 40-79-11 22-30 35-61 35-53 0-70-43-70-97 0-56 18-96 73-97 30 0 46 14 59 34l2-30h47zm-90-29c32 0 41-27 41-63 0-35-9-62-40-62-32 0-39 29-40 63 0 36 9 62 39 62" id="D"/><g id="e"><use transform="matrix(0.05456802469135802,0,0,0.05456802469135802,0,0)" xlink:href="#w"/><use transform="matrix(0.05456802469135802,0,0,0.05456802469135802,6.493594938271604,0)" xlink:href="#x"/><use transform="matrix(0.05456802469135802,0,0,0.05456802469135802,21.77264185185185,0)" xlink:href="#u"/><use transform="matrix(0.05456802469135802,0,0,0.05456802469135802,27.229444320987653,0)" xlink:href="#w"/><use transform="matrix(0.05456802469135802,0,0,0.05456802469135802,33.72303925925926,0)" xlink:href="#w"/><use transform="matrix(0.05456802469135802,0,0,0.05456802469135802,40.216634197530865,0)" xlink:href="#k"/><use transform="matrix(0.05456802469135802,0,0,0.05456802469135802,51.13023913580247,0)" xlink:href="#s"/><use transform="matrix(0.05456802469135802,0,0,0.05456802469135802,57.678402098765424,0)" xlink:href="#y"/><use transform="matrix(0.05456802469135802,0,0,0.05456802469135802,63.135204567901226,0)" xlink:href="#A"/><use transform="matrix(0.05456802469135802,0,0,0.05456802469135802,75.08560197530863,0)" xlink:href="#g"/><use transform="matrix(0.05456802469135802,0,0,0.05456802469135802,85.99920691358024,0)" xlink:href="#h"/><use transform="matrix(0.05456802469135802,0,0,0.05456802469135802,97.94960432098765,0)" xlink:href="#i"/><use transform="matrix(0.05456802469135802,0,0,0.05456802469135802,109.90000172839505,0)" xlink:href="#j"/><use transform="matrix(0.05456802469135802,0,0,0.05456802469135802,115.35680419753085,0)" xlink:href="#k"/><use transform="matrix(0.05456802469135802,0,0,0.05456802469135802,126.27040913580245,0)" xlink:href="#y"/><use transform="matrix(0.05456802469135802,0,0,0.05456802469135802,131.72721160493828,0)" xlink:href="#B"/><use transform="matrix(0.05456802469135802,0,0,0.05456802469135802,143.67760901234567,0)" xlink:href="#C"/><use transform="matrix(0.05456802469135802,0,0,0.05456802469135802,154.59121395061726,0)" xlink:href="#g"/><use transform="matrix(0.05456802469135802,0,0,0.05456802469135802,165.50481888888885,0)" xlink:href="#D"/><use transform="matrix(0.05456802469135802,0,0,0.05456802469135802,177.45521629629624,0)" xlink:href="#k"/></g></defs></g></svg>